<svg width="150" height="381" viewBox="0 0 150 381" fill="none" xmlns="http://www.w3.org/2000/svg">
<g clip-path="url(#clip0_162_107)">
<path fill-rule="evenodd" clip-rule="evenodd" d="M72.0904 1.71583C68.3505 2.73885 64.8048 4.61087 61.7457 7.17998C54.3383 13.3988 52.6411 15.6122 49.7262 22.859C47.5381 28.2981 46.9837 31.1739 46.9865 37.0649C46.9943 50.0806 50.7129 57.6966 63.5883 71.0652C65.5745 73.1268 67.1984 75.0427 67.1984 75.3233C67.1984 77.4147 60.2835 85.0545 55.3835 88.3778C49.8282 92.1459 29.1334 101.751 23.5587 103.148C19.8265 104.084 15.8306 108.424 13.81 113.736C12.8165 116.35 11.1993 119.582 10.2155 120.919C8.16218 123.714 6.65085 130.74 5.88941 141.035C5.43021 147.243 5.64585 148.722 7.50856 152.128L9.65814 156.059L7.27558 159.564C5.06826 162.814 4.89018 163.938 4.84878 174.912C4.82183 182.246 4.33858 187.85 3.57906 189.637C2.90521 191.223 2.04652 195.766 1.66917 199.733C1.29277 203.699 0.671878 208.726 0.288745 210.906C-0.352375 214.556 -0.13194 215.171 3.10061 218.745C7.78963 223.929 13.2103 226.302 22.3073 227.154L29.8621 227.861L29.2614 231.611C28.9312 233.672 27.5363 238.7 26.1607 242.785C23.1178 251.822 18.1746 275.512 18.0928 281.459C18.0601 283.839 17.3718 288.814 16.5641 292.516C13.7253 305.532 13.6165 304.692 18.527 307.748C22.5451 310.249 22.9166 310.804 22.9166 314.307C22.9166 316.679 21.979 319.732 20.4494 322.339C18.3017 325.999 17.985 327.639 18.0004 335.009C18.0216 344.818 16.8876 352.012 13.6666 362.515C12.4007 366.64 11.3649 372.372 11.3649 375.254V380.492H69.166L71.8585 376.251C73.3399 373.918 76.6495 367.429 79.2149 361.829C81.7793 356.229 84.1899 351.648 84.5707 351.648C85.6287 351.648 86.3617 355.893 87.3473 367.739C87.842 373.682 88.5181 378.982 88.85 379.517C89.2293 380.131 97.7782 380.492 111.915 380.492C137.229 380.492 135.546 381.056 135.546 372.586C135.546 369.911 137.049 361.834 138.887 354.637C142.641 339.938 144.21 328.97 144.21 317.417C144.21 311.377 144.566 309.283 145.763 308.29C146.984 307.278 147.187 305.968 146.711 302.163C146.378 299.501 145.677 292.781 145.153 287.228C144.63 281.675 143.366 273.671 142.345 269.44C141.323 265.21 139.33 256.81 137.915 250.774C136.5 244.738 134.522 237.887 133.519 235.551C131.147 230.025 131.094 227.165 133.38 228.093C139.056 230.397 140.435 230.431 141.248 228.283C148.038 210.357 147.99 210.703 147.935 180.022C147.907 164.686 148.344 148.893 148.905 144.928C150.593 133.002 150.282 116.2 148.299 112.237C146.443 108.526 141.085 105.506 121.587 97.1879C109.011 91.8217 109.572 92.1969 106.833 87.3287L104.659 83.4644L108.059 81.2646C109.929 80.055 112.091 77.7495 112.863 76.1407C115.208 71.2581 117.429 58.4062 117.112 51.5555C116.879 46.5125 117.175 44.6934 118.456 43.279C121.891 39.4869 120.463 23.1349 115.783 12.6922C113.232 7.00018 111.305 5.7435 101.313 3.25517C89.0058 0.190908 79.5005 -0.310026 72.0904 1.71583ZM108.212 61.9675C106.895 62.305 106.722 62.6414 107.593 63.1782C108.402 63.6778 108.464 64.1279 107.78 64.5499C107.221 64.8954 106.293 64.3001 105.718 63.2282C104.781 61.478 104.949 61.2899 107.355 61.3898C109.233 61.4674 109.49 61.6407 108.212 61.9675ZM87.3606 96.4179L96.4527 104.528L98.7601 102.373C101.835 99.5009 102.959 97.3033 104.285 91.565L105.396 86.7574L106.513 93.0861C107.127 96.5667 107.629 102.403 107.629 106.057V112.698L103.624 108.577C100.876 105.748 99.1415 104.663 98.0894 105.112C97.2479 105.471 94.7202 106.07 92.4723 106.444C90.2245 106.818 87.5149 107.91 86.45 108.873C85.3856 109.835 84.3649 110.445 84.184 110.229C82.7612 108.527 74.0176 88.8476 74.4043 88.221C75.425 86.5729 78.5149 88.5287 87.3606 96.4179ZM86.9197 114.758C87.7207 116.673 88.341 118.945 88.2973 119.806C88.2202 121.344 86.3761 117.715 85.0612 113.439C84.0032 109.998 85.3191 110.932 86.9197 114.758ZM104.234 118.777C104.576 121.263 104.462 124.362 103.98 125.664L103.103 128.03L101.984 125.941C100.537 123.242 99.5037 115.691 100.298 113.624C101.348 110.89 103.544 113.764 104.234 118.777ZM103.779 186.696C103.779 186.929 103.345 187.387 102.816 187.714C102.287 188.041 101.853 187.85 101.853 187.29C101.853 186.73 102.287 186.272 102.816 186.272C103.345 186.272 103.779 186.462 103.779 186.696ZM138.434 187.12C138.434 187.588 137.351 188.178 136.027 188.43C133.324 188.945 132.684 187.618 135.305 186.934C138.074 186.211 138.434 186.233 138.434 187.12ZM94.1521 190.174C94.1521 191.263 93.7383 191.898 93.2319 191.586C92.7255 191.273 92.5553 190.382 92.8537 189.606C93.617 187.618 94.1521 187.852 94.1521 190.174ZM117.864 189.912C117.607 190.327 118.123 190.72 119.011 190.784C119.899 190.848 123.549 191.913 127.123 193.148C132.581 195.036 133.621 195.745 133.621 197.582C133.621 199.468 133.269 199.681 131.071 199.129C129.119 198.641 128.703 198.785 129.294 199.741C129.807 200.572 129.689 200.757 128.94 200.295C128.32 199.912 128.036 199.239 128.31 198.798C128.582 198.358 127.441 197.522 125.775 196.941C122.06 195.648 121.123 195.616 123.031 196.848C124.315 197.677 124.315 197.774 123.031 197.727C122.237 197.698 120.721 197.303 119.662 196.848C117.944 196.111 117.923 196.015 119.478 195.954C120.436 195.917 120.952 195.454 120.625 194.925C120.288 194.38 121.202 193.907 122.734 193.833C124.927 193.726 125.039 193.624 123.322 193.291C122.157 193.065 120.252 193.391 119.085 194.016C117.294 194.972 117.052 194.919 117.53 193.674C117.853 192.836 117.478 191.963 116.664 191.65C115.855 191.341 115.486 191.516 115.819 192.051C116.142 192.574 115.731 193.002 114.906 193.002C114.081 193.002 113.405 193.461 113.405 194.02C113.405 194.58 112.926 194.742 112.339 194.381C111.582 193.913 111.618 193.512 112.463 192.989C113.117 192.585 113.373 191.805 113.032 191.255C112.501 190.396 113.476 189.972 117.553 189.287C117.981 189.215 118.122 189.497 117.864 189.912ZM138.859 197.72C139.157 198.199 138.532 198.365 137.472 198.088C135.224 197.501 134.94 196.848 136.933 196.848C137.696 196.848 138.563 197.24 138.859 197.72ZM143.275 208.833C142.61 209.633 141.656 210.035 141.155 209.725C140.654 209.416 141.027 208.591 141.985 207.892C144.138 206.318 144.902 206.875 143.275 208.833ZM110.552 291.293C109.989 294.081 109.064 299.39 108.496 303.093C107.929 306.794 107.354 309.934 107.219 310.07C107.085 310.205 105.628 310.048 103.982 309.719C101.173 309.158 101.073 308.996 102.348 307.053C104.7 303.467 106.683 296.726 108.172 287.255C108.964 282.217 109.916 277.445 110.288 276.652C111.43 274.216 111.639 285.902 110.552 291.293ZM118.707 296.843C119.098 298.694 120.429 302.211 121.663 304.658C124.07 309.429 123.905 310.304 120.597 310.304C118.694 310.304 118.42 309.661 117.843 303.813C117.49 300.245 116.972 295.809 116.693 293.958C116.041 289.661 117.69 292.021 118.707 296.843Z" fill="black"/>
<path fill-rule="evenodd" clip-rule="evenodd" d="M72.0904 1.21583C68.3505 2.23886 64.8048 4.11088 61.7457 6.67998C54.3383 12.8989 52.6411 15.1122 49.7262 22.359C47.5381 27.7981 46.9836 30.6739 46.9865 36.5649C46.9942 49.5806 50.7129 57.1967 63.5883 70.5652C65.5744 72.6268 67.1984 74.5427 67.1984 74.8234C67.1984 76.9147 60.2835 84.5546 55.3835 87.8778C49.8282 91.6459 29.1333 101.251 23.5587 102.648C19.8265 103.584 15.8306 107.924 13.81 113.236C12.8165 115.85 11.1993 119.082 10.2155 120.419C8.16218 123.214 6.65085 130.24 5.88941 140.535C5.43021 146.743 5.64585 148.222 7.50856 151.628L9.65813 155.559L7.27558 159.064C5.06826 162.314 4.89017 163.438 4.84878 174.412C4.82183 181.746 4.33858 187.35 3.57906 189.137C2.90521 190.723 2.04652 195.266 1.66916 199.233C1.29277 203.199 0.671877 208.226 0.288745 210.406C-0.352375 214.056 -0.131939 214.671 3.10061 218.245C7.78962 223.429 13.2103 225.803 22.3073 226.654L29.8621 227.361L29.2614 231.111C28.9312 233.172 27.5363 238.201 26.1607 242.285C23.1178 251.322 18.1746 275.012 18.0928 280.959C18.0601 283.339 17.3718 288.314 16.5641 292.016C13.7253 305.032 13.6165 304.193 18.527 307.248C22.545 309.749 22.9166 310.304 22.9166 313.807C22.9166 316.179 21.979 319.232 20.4494 321.839C18.3017 325.499 17.985 327.139 18.0004 334.509C18.0216 344.318 16.8876 351.512 13.6666 362.015C12.4007 366.14 11.3649 371.872 11.3649 374.754V379.992H69.1659L71.8585 375.751C73.3398 373.418 76.6494 366.929 79.2148 361.329C81.7792 355.729 84.1898 351.148 84.5707 351.148C85.6287 351.148 86.3617 355.393 87.3473 367.239C87.842 373.182 88.518 378.482 88.8499 379.018C89.2292 379.631 97.7781 379.992 111.915 379.992C137.229 379.992 135.546 380.556 135.546 372.086C135.546 369.411 137.049 361.334 138.887 354.137C142.641 339.438 144.209 328.47 144.209 316.918C144.209 310.877 144.566 308.783 145.763 307.791C146.984 306.778 147.187 305.469 146.711 301.663C146.378 299.001 145.677 292.281 145.153 286.728C144.63 281.175 143.366 273.171 142.345 268.94C141.323 264.71 139.33 256.31 137.915 250.274C136.5 244.238 134.522 237.387 133.519 235.051C131.147 229.525 131.094 226.666 133.38 227.594C139.056 229.897 140.435 229.931 141.248 227.783C148.038 209.857 147.99 210.203 147.935 179.522C147.907 164.186 148.344 148.394 148.905 144.428C150.593 132.502 150.282 115.7 148.299 111.737C146.443 108.026 141.085 105.007 121.587 96.688C109.011 91.3218 109.572 91.697 106.833 86.8287L104.658 82.9644L108.058 80.7647C109.929 79.555 112.091 77.2495 112.863 75.6408C115.208 70.7582 117.429 57.9062 117.112 51.0556C116.879 46.0126 117.175 44.1934 118.456 42.779C121.891 38.987 120.463 22.6349 115.783 12.1922C113.232 6.50018 111.305 5.2435 101.313 2.75517C89.0058 -0.309092 79.5005 -0.810027 72.0904 1.21583ZM108.212 61.4676C106.895 61.805 106.722 62.1415 107.592 62.6782C108.402 63.1778 108.464 63.628 107.78 64.05C107.221 64.3954 106.293 63.8002 105.718 62.7282C104.781 60.9781 104.949 60.7899 107.355 60.8899C109.233 60.9674 109.49 61.1407 108.212 61.4676ZM87.3606 95.9179L96.4526 104.028L98.7601 101.873C101.835 99.001 102.958 96.8033 104.285 91.0651L105.396 86.2574L106.513 92.5861C107.127 96.0667 107.629 101.903 107.629 105.557V112.198L103.624 108.077C100.875 105.248 99.1414 104.163 98.0893 104.612C97.2478 104.971 94.7202 105.57 92.4723 105.944C90.2244 106.318 87.5148 107.41 86.45 108.373C85.3856 109.335 84.3648 109.945 84.184 109.729C82.7611 108.027 74.0175 88.3477 74.4042 87.7211C75.425 86.073 78.5149 88.0288 87.3606 95.9179ZM86.9196 114.258C87.7207 116.173 88.3409 118.445 88.2973 119.306C88.2202 120.844 86.376 117.215 85.0611 112.939C84.0031 109.498 85.3191 110.432 86.9196 114.258ZM104.234 118.277C104.575 120.764 104.462 123.863 103.98 125.164L103.103 127.53L101.984 125.441C100.537 122.742 99.5037 115.191 100.298 113.124C101.348 110.39 103.544 113.264 104.234 118.277ZM103.779 186.196C103.779 186.429 103.345 186.887 102.816 187.214C102.287 187.541 101.853 187.35 101.853 186.79C101.853 186.23 102.287 185.772 102.816 185.772C103.345 185.772 103.779 185.962 103.779 186.196ZM138.433 186.62C138.433 187.088 137.35 187.678 136.027 187.93C133.324 188.446 132.684 187.118 135.305 186.434C138.074 185.711 138.433 185.733 138.433 186.62ZM94.1521 189.674C94.1521 190.763 93.7382 191.398 93.2319 191.086C92.7255 190.773 92.5553 189.882 92.8537 189.106C93.617 187.118 94.1521 187.352 94.1521 189.674ZM117.864 189.412C117.607 189.827 118.123 190.22 119.011 190.284C119.899 190.348 123.549 191.413 127.123 192.648C132.581 194.536 133.621 195.245 133.621 197.082C133.621 198.968 133.269 199.181 131.071 198.63C129.119 198.141 128.703 198.285 129.294 199.241C129.807 200.072 129.689 200.257 128.94 199.795C128.32 199.412 128.036 198.739 128.31 198.298C128.582 197.858 127.441 197.022 125.775 196.441C122.06 195.148 121.123 195.117 123.031 196.348C124.315 197.177 124.315 197.274 123.031 197.227C122.237 197.198 120.721 196.803 119.662 196.348C117.944 195.611 117.923 195.515 119.478 195.454C120.436 195.417 120.952 194.954 120.625 194.425C120.288 193.88 121.202 193.407 122.734 193.333C124.927 193.226 125.039 193.124 123.322 192.791C122.157 192.566 120.252 192.891 119.085 193.516C117.294 194.472 117.052 194.419 117.53 193.174C117.853 192.336 117.478 191.463 116.664 191.15C115.855 190.841 115.486 191.016 115.819 191.551C116.142 192.074 115.731 192.502 114.906 192.502C114.081 192.502 113.405 192.961 113.405 193.521C113.405 194.08 112.925 194.242 112.339 193.881C111.582 193.413 111.617 193.012 112.463 192.489C113.117 192.086 113.373 191.305 113.032 190.755C112.501 189.896 113.476 189.472 117.553 188.787C117.981 188.715 118.122 188.997 117.864 189.412ZM138.859 197.22C139.157 197.699 138.532 197.865 137.472 197.588C135.224 197.001 134.94 196.348 136.933 196.348C137.696 196.348 138.563 196.74 138.859 197.22ZM143.275 208.333C142.609 209.133 141.656 209.535 141.155 209.225C140.654 208.916 141.027 208.091 141.985 207.392C144.138 205.818 144.902 206.375 143.275 208.333ZM110.552 290.793C109.989 293.581 109.064 298.891 108.496 302.593C107.929 306.295 107.354 309.434 107.219 309.57C107.085 309.705 105.628 309.548 103.982 309.219C101.173 308.658 101.073 308.496 102.348 306.553C104.7 302.968 106.683 296.226 108.172 286.755C108.964 281.717 109.916 276.945 110.288 276.152C111.43 273.716 111.639 285.402 110.552 290.793ZM118.707 296.343C119.098 298.194 120.429 301.711 121.663 304.158C124.07 308.929 123.905 309.804 120.597 309.804C118.694 309.804 118.42 309.161 117.842 303.314C117.49 299.745 116.972 295.309 116.692 293.458C116.041 289.162 117.69 291.521 118.707 296.343Z" fill="black" fill-opacity="0.2"/>
<path d="M92.0215 149.311H146.277V213.087H92.0215V149.311Z" fill="black"/>
<path d="M79.7871 27.605H112.234V77.0316H79.7871V27.605Z" fill="black"/>
<path d="M92.553 152.766C93.1737 152.589 93.7939 152.411 94.4147 152.234C95.0354 152.057 96.0992 152.013 97.6061 152.102C99.2019 152.102 100.443 152.544 101.33 153.43C102.305 154.316 103.368 154.936 104.521 155.29C105.674 155.645 106.427 156.265 106.782 157.15C107.225 157.948 107.58 158.523 107.846 158.878C108.111 159.143 108.422 159.409 108.776 159.675C109.485 160.472 109.973 161.446 110.239 162.598C110.505 163.75 110.771 164.591 111.037 165.123C111.303 165.654 111.525 166.141 111.702 166.584C112.145 167.736 112.323 168.887 112.234 170.039C112.145 171.102 112.234 171.987 112.5 172.696C112.766 173.316 112.766 174.246 112.5 175.486C112.323 176.638 112.323 177.789 112.5 178.941C112.677 180.092 112.411 181.376 111.702 182.794C110.993 184.123 110.15 185.451 109.175 186.78C108.289 188.02 107.757 189.526 107.58 191.297C107.225 194.309 105.629 196.435 102.792 197.675C101.374 198.383 100.31 199.313 99.6008 200.465C98.8918 201.528 98.3152 202.813 97.8721 204.318C97.429 205.736 97.0742 207.241 96.8083 208.836C96.5423 210.341 96.2764 211.892 96.0104 213.486C95.5673 217.118 95.3897 219.465 95.4785 220.528C95.6556 221.591 95.6115 222.654 95.3455 223.717C95.0796 224.78 94.6806 225.799 94.1487 226.773C92.8189 229.164 91.4891 230.272 90.1593 230.095C89.0067 230.095 88.0317 230.183 87.2338 230.36C85.9928 230.626 85.0173 230.493 84.3083 229.962C82.8014 228.81 81.8258 227.792 81.3827 226.906C80.496 225.134 80.2301 223.141 80.5849 220.927C81.028 218.624 81.1168 216.764 80.8508 215.346C80.6737 213.841 80.4077 212.379 80.053 210.962C78.4572 205.824 78.8561 201.395 81.2498 197.675C81.9588 196.612 82.6684 195.948 83.3774 195.682C84.0865 195.239 84.6631 194.619 85.1061 193.822C85.5492 193.025 86.0811 192.626 86.7019 192.626C87.4109 192.626 88.2535 192.183 89.2285 191.297C90.2923 190.411 91.312 189.26 92.287 187.843C94.6806 184.299 95.4343 181.421 94.5476 179.206C93.7498 177.258 92.6418 176.505 91.2232 176.948C90.6913 177.036 90.2035 177.125 89.7604 177.213C89.3173 177.213 88.9625 176.815 88.6966 176.018C87.9875 174.423 86.7019 173.582 84.8402 173.493C82.8897 173.316 81.4269 174.334 80.4519 176.549C79.92 177.701 79.521 178.631 79.2551 179.339C78.9891 180.048 78.7232 180.668 78.4572 181.199C78.0141 181.997 77.1716 182.484 75.9306 182.661C74.778 182.838 73.9359 182.883 73.404 182.794C72.8721 182.617 72.429 182.439 72.0742 182.262C71.8083 182.085 71.5423 181.908 71.2764 181.731C71.0992 181.554 70.7886 181.465 70.3455 181.465C69.9907 181.465 69.4588 181.332 68.7498 181.067C68.0407 180.712 67.3311 180.181 66.6221 179.472C64.8492 177.701 63.6966 175.575 63.1647 173.095C62.6327 170.614 62.145 168.887 61.7019 167.913C61.2588 166.85 61.3918 165.92 62.1008 165.123C62.8099 164.325 63.4748 163.484 64.0955 162.598C65.6024 160.029 66.6663 158.612 67.287 158.346C67.9077 158.081 68.4397 157.859 68.8827 157.682C69.9466 157.239 70.8333 156.486 71.5423 155.423C72.3402 154.36 72.9163 153.652 73.271 153.297C73.7141 152.855 74.1577 152.544 74.6008 152.367C75.0439 152.19 75.5317 152.102 76.0636 152.102C76.5955 152.102 77.2163 152.102 77.9253 152.102C78.7232 152.013 79.3439 151.88 79.787 151.703C80.2301 151.526 80.629 151.348 80.9838 151.171C81.8705 150.906 82.7567 150.906 83.6434 151.171C84.6184 151.437 85.2391 151.703 85.5051 151.969C85.771 152.146 85.9928 152.323 86.17 152.5C86.7019 153.032 87.5439 153.341 88.6966 153.43C89.5833 153.519 90.2923 153.474 90.8242 153.297C91.445 153.12 92.021 152.943 92.553 152.766ZM82.1806 238.731C83.3333 238.199 84.3524 238.111 85.2391 238.465C86.2141 238.82 87.0567 238.82 87.7657 238.465C88.5636 238.022 89.5833 237.89 90.8242 238.067C92.0652 238.155 92.8631 238.598 93.2178 239.395C93.6609 240.104 94.1487 240.813 94.6806 241.521C95.2125 242.23 95.3455 243.071 95.0796 244.046C94.8136 244.932 94.6365 245.684 94.5476 246.304C94.4588 246.925 94.1487 247.5 93.6168 248.032C93.1737 248.563 92.5971 249.139 91.8881 249.759C91.2673 250.379 90.5583 250.999 89.7604 251.619C87.8099 253.036 86.037 253.656 84.4413 253.479C82.9343 253.39 81.9147 252.948 81.3827 252.15C80.8508 251.442 80.2301 250.822 79.521 250.29C78.2801 249.404 78.0583 247.279 78.8561 243.913C79.2992 242.141 79.6982 240.946 80.053 240.325C80.4077 239.705 81.1168 239.174 82.1806 238.731Z" fill="white"/>
</g>
<defs>
<clipPath id="clip0_162_107">
<rect width="150" height="380" fill="white" transform="translate(0 0.5)"/>
</clipPath>
</defs>
</svg>
